<?xml version="1.0" encoding="utf-8"?>
<!-- Generator: Adobe Illustrator 23.0.3, SVG Export Plug-In . SVG Version: 6.00 Build 0)  -->
<svg version="1.1" id="Warstwa_1" xmlns="http://www.w3.org/2000/svg" xmlns:xlink="http://www.w3.org/1999/xlink" x="0px" y="0px"
	 viewBox="0 0 150 150" style="enable-background:new 0 0 150 150;" xml:space="preserve">
<style type="text/css">
	.st0{fill:#CC1717;}
</style>
<title>Logo</title>
<g>
	<path class="st0" d="M100,50H75H50H25C11.2,50,0,61.2,0,75s11.2,25,25,25h25v25c0,13.8,11.2,25,25,25h25v-50h25
		c13.8,0,25-11.2,25-25V50H100z M69.7,65c0.1,0,0.2,0,0.3,0c3.3,0,6,2.7,6,6c0-3.3,2.7-6,6-6c3.2-0.1,5.9,2.4,6,5.7
		c0,0.1,0,0.2,0,0.3c0,6-12,14-12,14s-12-8-12-14C63.9,67.8,66.4,65.1,69.7,65z"/>
	<path class="st0" d="M100,25V0H75C61.2,0,50,11.2,50,25s11.2,25,25,25S100,38.8,100,25z"/>
</g>
</svg>
