<svg xmlns="http://www.w3.org/2000/svg" viewBox="0 0 150 150"><defs><style>.cls-1{fill:#fff;}</style></defs><title>Logo_W</title><g id="Warstwa_2" data-name="Warstwa 2"><g id="Warstwa_1-2" data-name="Warstwa 1"><path class="cls-1" d="M100,50H25A25,25,0,0,0,0,75H0a25,25,0,0,0,25,25H50v25a25,25,0,0,0,25,25h25V100h25a25,25,0,0,0,25-25V50ZM70,65a6,6,0,0,1,6,6,6,6,0,0,1,6-6,5.83,5.83,0,0,1,6,6c0,6-12,14-12,14S64,77,64,71A5.83,5.83,0,0,1,70,65Z"/><path class="cls-1" d="M100,25V0H75A25,25,0,0,0,50,25h0a25,25,0,0,0,50,0Z"/></g></g></svg>