<?xml version="1.0" encoding="utf-8"?>
<!-- Generator: Adobe Illustrator 23.0.3, SVG Export Plug-In . SVG Version: 6.00 Build 0)  -->
<svg version="1.1" id="Warstwa_1" xmlns="http://www.w3.org/2000/svg" xmlns:xlink="http://www.w3.org/1999/xlink" x="0px" y="0px"
	 viewBox="0 0 1920 1080" style="enable-background:new 0 0 1920 1080;" xml:space="preserve">
<style type="text/css">
	.st0{fill:none;stroke:#21ED4D;stroke-width:10;stroke-linecap:round;stroke-miterlimit:10;}
	.st1{fill:none;}
	.st2{fill:#FFFFFF;}
	.st3{fill:none;stroke:#FFFFFF;stroke-width:10;stroke-miterlimit:10;}
	.st4{fill:none;stroke:#CC1717;stroke-width:10;stroke-miterlimit:10;}
</style>
<path id="Pulse_L" class="st0" d="M6,540h113.5c2.1,0,3.9-11.4,4.4-13.4l4-16.4c1.2-4.7,8-4.5,8.8,0.3l8.2,58.7
	c0.8,4.7,7.3,5.1,8.7,0.6l9.8-42.1c1.2-4,6.8-4.3,8.4-0.5l0,0c0.7,1.7,2.3,12.7,4.1,12.7h132.4c2.7,0,5-1.9,5.6-4.6l7.2-35.8
	c1.3-6.3,10.4-6,11.2,0.4l3.1,55.8c0.8,6.5,10.1,6.7,11.2,0.3l38.5-213c1.2-6.6,10.8-6.1,11.2,0.6l18,342.7
	c0.5,6.7,10.2,7.1,11.3,0.4l31.9-204.2c1-6.6,10.5-6.4,11.2,0.2l8.4,75.8c0.7,6,9,6.9,11,1.2l5.5-16.1c0.8-2.3,2.9-3.8,5.4-3.8h127"
	/>
<path id="Pulse_R" class="st0" d="M1293.8,540h119.5c2.1,0,3.9-11.4,4.4-13.4l4-16.4c1.2-4.7,8-4.5,8.8,0.3l8.2,58.7
	c0.8,4.7,7.3,5.1,8.7,0.6l9.8-42.1c1.2-4,6.8-4.3,8.4-0.5l0,0c0.7,1.7,2.3,12.7,4.1,12.7h132.4c2.7,0,5-1.9,5.6-4.6l7.2-35.8
	c1.3-6.3,10.4-6,11.2,0.4l3.1,55.8c0.8,6.5,10.1,6.7,11.2,0.3l38.5-213c1.2-6.6,10.8-6.1,11.2,0.6l18,342.7
	c0.5,6.7,10.2,7.1,11.3,0.4l31.9-204.2c1-6.6,10.5-6.4,11.2,0.2l8.4,75.8c0.7,6,9,6.9,11,1.2l5.5-16.1c0.8-2.3,2.9-3.8,5.4-3.8
	h121.9"/>
<g id="Logo">
	<path class="st1" d="M960,206.3c-30.7,0-58.5,12.5-78.7,32.6c-20.1,20.1-32.6,47.9-32.6,78.7c0,61.4,49.8,111.3,111.3,111.3
		s111.3-49.8,111.3-111.3V206.3H960z M737.5,428.8c-30.7,0-58.5,12.5-78.7,32.6c-20.1,20.1-32.6,47.9-32.6,78.7
		c0,61.4,49.8,111.3,111.3,111.3h111.3v111.3c0,61.4,49.8,111.3,111.3,111.3h111.3V651.3h111.3c61.4,0,111.3-49.8,111.3-111.3V428.8
		H737.5z M964.5,584.5c0,0-53.4-35.6-53.4-62.3c0-16,12-26.7,26.7-26.7s26.7,12,26.7,26.7c0-14.8,12-26.7,26.7-26.7
		s26.7,10.7,26.7,26.7C1017.8,548.9,964.5,584.5,964.5,584.5z"/>
	<path class="st2" d="M1093.4,388.8c2.1-4,4.1-8.1,5.9-12.4c7.9-18.7,11.9-38.5,11.9-58.9V166.3H960c-20.4,0-40.2,4-58.9,11.9
		c-18,7.6-34.2,18.5-48.1,32.4c-13.9,13.9-24.8,30-32.4,48.1c-7.9,18.7-11.9,38.5-11.9,58.9s4,40.2,11.9,58.9
		c1.8,4.2,3.8,8.3,5.9,12.4h-89c-20.4,0-40.2,4-58.9,11.9c-18,7.6-34.2,18.5-48.1,32.4c-13.9,13.9-24.8,30-32.4,48.1
		c-7.9,18.7-11.9,38.5-11.9,58.9s4,40.2,11.9,58.9c7.6,18,18.5,34.2,32.4,48.1c13.9,13.9,30,24.8,48.1,32.4
		c18.7,7.9,38.5,11.9,58.9,11.9h71.3v71.3c0,20.4,4,40.2,11.9,58.9c7.6,18,18.5,34.2,32.4,48.1c13.9,13.9,30,24.8,48.1,32.4
		c18.7,7.9,38.5,11.9,58.9,11.9h151.3V691.3h71.3c20.4,0,40.2-4,58.9-11.9c18-7.6,34.2-18.5,48.1-32.4s24.8-30.1,32.4-48.1
		c7.9-18.7,11.9-38.5,11.9-58.9V388.8H1093.4z M1293.8,540c0,61.4-49.8,111.3-111.3,111.3h-111.3v222.5H960
		c-61.4,0-111.3-49.8-111.3-111.3V651.3H737.5c-61.4,0-111.3-49.8-111.3-111.3c0-30.7,12.5-58.5,32.6-78.7
		c20.1-20.1,47.9-32.6,78.7-32.6H960c-61.4,0-111.3-49.8-111.3-111.3c0-30.7,12.5-58.5,32.6-78.7c20.1-20.1,47.9-32.6,78.7-32.6
		h111.3v111.3c0,61.4-49.8,111.3-111.3,111.3h333.8V540z"/>
</g>
<path id="_x3C_3" class="st2" d="M1017.8,522.2c0,26.7-53.4,62.3-53.4,62.3S911,548.9,911,522.2c0-16,12-26.7,26.7-26.7
	s26.7,12,26.7,26.7c0-14.8,12-26.7,26.7-26.7S1017.8,506.2,1017.8,522.2z"/>
<path id="Small_W" class="st3" d="M626.4,540.1h114.2c2.1,0,3.9-11.4,4.4-13.4l4-16.4c1.2-4.7,8-4.5,8.8,0.3l8.2,58.7
	c0.8,4.7,7.3,5.1,8.7,0.6l9.8-42.1c1.2-4,6.8-4.3,8.4-0.5l0,0c0.7,1.7,2.3,12.7,4.1,12.7h81.8h-40.3h99.2c2.1,0,3.9-11.4,4.4-13.4
	l4-16.4c1.2-4.7,8-4.5,8.8,0.3l8.2,58.7c0.8,4.7,7.3,5.1,8.7,0.6l9.8-42.1c1.2-4,6.8-4.3,8.4-0.5l0,0c0.7,1.7,2.3,12.7,4.1,12.7
	h81.8h72.6c2.1,0,3.9-11.4,4.4-13.4l4-16.4c1.2-4.7,8-4.5,8.8,0.3l8.2,58.7c0.8,4.7,7.3,5.1,8.7,0.6l9.8-42.1c1.2-4,6.8-4.3,8.4-0.5
	l0,0c0.7,1.7,2.3,12.7,4.1,12.7l88.5-0.1"/>
<path id="Small_R" class="st4" d="M917.3,540.1h20.6c2.1,0,3.9-11.4,4.4-13.4l4-16.4c1.2-4.7,8-4.5,8.8,0.3l8.2,58.7
	c0.8,4.7,7.3,5.1,8.7,0.6l9.8-42.1c1.2-4,6.8-4.3,8.4-0.5l0,0c0.7,1.7,2.3,12.7,4.1,12.7h17.2"/>
</svg>
